HIERARCHY
ROOT hip
{
  OFFSET 0.0 0.0 0.0
  CHANNELS 6 Xposition Yposition Zposition Zrotation Yrotation Xrotation
  JOINT abdomen
  {
    OFFSET 0.0 20.6881 -0.73152
    CHANNELS 3 Zrotation Xrotation Yrotation
    JOINT chest
    {
      OFFSET 0.0 11.7043 -0.48768
      CHANNELS 3 Zrotation Xrotation Yrotation
      JOINT neck
      {
        OFFSET 0.0 22.1894 -2.19456
        CHANNELS 3 Zrotation Xrotation Yrotation
        JOINT head
        {
          OFFSET -0.24384 7.07133 1.2192
          CHANNELS 3 Zrotation Xrotation Yrotation
          JOINT leftEye
          {
            OFFSET 4.14528 8.04674 8.04672
            CHANNELS 3 Zrotation Xrotation Yrotation
            End Site
            {
              OFFSET 1.0 0.0 0.0
            }
          }
          JOINT rightEye
          {
            OFFSET -3.6576 8.04674 8.04672
            CHANNELS 3 Zrotation Xrotation Yrotation
            End Site
            {
              OFFSET 1.0 0.0 0.0
            }
          }
        }
      }
      JOINT rCollar
      {
        OFFSET -2.68224 19.2634 -4.8768
        CHANNELS 3 Zrotation Xrotation Yrotation
        JOINT rShldr
        {
          OFFSET -8.77824 -1.95073 1.46304
          CHANNELS 3 Zrotation Xrotation Yrotation
          JOINT rForeArm
          {
            OFFSET -28.1742 -1.7115 0.48768
            CHANNELS 3 Zrotation Xrotation Yrotation
            JOINT rHand
            {
              OFFSET -22.5879 0.773209 7.07136
              CHANNELS 3 Zrotation Xrotation Yrotation
              JOINT rThumb1
              {
                OFFSET -1.2192 -0.487915 3.41376
                CHANNELS 3 Zrotation Xrotation Yrotation
                JOINT rThumb2
                {
                  OFFSET -3.37035 -0.52449 3.41376
                  CHANNELS 3 Zrotation Xrotation Yrotation
                  End Site
                  {
                    OFFSET -1.78271 -1.18214 1.43049
                  }
                }
              }
              JOINT rIndex1
              {
                OFFSET -7.75947 0.938293 5.60832
                CHANNELS 3 Zrotation Xrotation Yrotation
                JOINT rIndex2
                {
                  OFFSET -2.54057 -0.884171 1.56538
                  CHANNELS 3 Zrotation Xrotation Yrotation
                  End Site
                  {
                    OFFSET -1.62519 -0.234802 1.16502
                  }
                }
              }
              JOINT rMid1
              {
                OFFSET -8.24714 1.18213 3.41376
                CHANNELS 3 Zrotation Xrotation Yrotation
                JOINT rMid2
                {
                  OFFSET -3.10165 -0.590103 1.0647
                  CHANNELS 3 Zrotation Xrotation Yrotation
                  End Site
                  {
                    OFFSET -2.48547 -0.328903 0.83742
                  }
                }
              }
              JOINT rRing1
              {
                OFFSET -8.82822 0.546677 1.51678
                CHANNELS 3 Zrotation Xrotation Yrotation
                JOINT rRing2
                {
                  OFFSET -2.60934 -0.819778 -0.0198488
                  CHANNELS 3 Zrotation Xrotation Yrotation
                  End Site
                  {
                    OFFSET -2.33842 -0.294052 0.168128
                  }
                }
              }
              JOINT rPinky1
              {
                OFFSET -8.27202 -0.0477905 -0.4584
                CHANNELS 3 Zrotation Xrotation Yrotation
                JOINT rPinky2
                {
                  OFFSET -1.82734 -0.647385 -0.700984
                  CHANNELS 3 Zrotation Xrotation Yrotation
                  End Site
                  {
                    OFFSET -1.69225 -0.51767 -0.607171
                  }
                }
              }
            }
          }
        }
      }
      JOINT lCollar
      {
        OFFSET 2.68224 19.2634 -4.8768
        CHANNELS 3 Zrotation Xrotation Yrotation
        JOINT lShldr
        {
          OFFSET 8.77824 -1.95073 1.46304
          CHANNELS 3 Zrotation Xrotation Yrotation
          JOINT lForeArm
          {
            OFFSET 28.1742 -1.7115 0.48768
            CHANNELS 3 Zrotation Xrotation Yrotation
            JOINT lHand
            {
              OFFSET 22.5879 0.773209 7.07136
              CHANNELS 3 Zrotation Xrotation Yrotation
              JOINT lThumb1
              {
                OFFSET 1.2192 -0.487915 3.41376
                CHANNELS 3 Zrotation Xrotation Yrotation
                JOINT lThumb2
                {
                  OFFSET 3.37035 -0.52449 3.41376
                  CHANNELS 3 Zrotation Xrotation Yrotation
                  End Site
                  {
                    OFFSET 1.78271 -1.18214 1.43049
                  }
                }
              }
              JOINT lIndex1
              {
                OFFSET 7.75947 0.938293 5.60832
                CHANNELS 3 Zrotation Xrotation Yrotation
                JOINT lIndex2
                {
                  OFFSET 2.54057 -0.884171 1.56538
                  CHANNELS 3 Zrotation Xrotation Yrotation
                  End Site
                  {
                    OFFSET 1.62519 -0.234802 1.16502
                  }
                }
              }
              JOINT lMid1
              {
                OFFSET 8.24714 1.18213 3.41376
                CHANNELS 3 Zrotation Xrotation Yrotation
                JOINT lMid2
                {
                  OFFSET 3.10165 -0.590103 1.0647
                  CHANNELS 3 Zrotation Xrotation Yrotation
                  End Site
                  {
                    OFFSET 2.48547 -0.328903 0.83742
                  }
                }
              }
              JOINT lRing1
              {
                OFFSET 8.82822 0.546677 1.51678
                CHANNELS 3 Zrotation Xrotation Yrotation
                JOINT lRing2
                {
                  OFFSET 2.60934 -0.819778 -0.0198488
                  CHANNELS 3 Zrotation Xrotation Yrotation
                  End Site
                  {
                    OFFSET 2.33842 -0.294052 0.168128
                  }
                }
              }
              JOINT lPinky1
              {
                OFFSET 8.27202 -0.0477905 -0.4584
                CHANNELS 3 Zrotation Xrotation Yrotation
                JOINT lPinky2
                {
                  OFFSET 1.82734 -0.647385 -0.700984
                  CHANNELS 3 Zrotation Xrotation Yrotation
                  End Site
                  {
                    OFFSET 1.69225 -0.51767 -0.607171
                  }
                }
              }
            }
          }
        }
      }
    }
  }
  JOINT rButtock
  {
    OFFSET -8.77824 4.35084 1.2192
    CHANNELS 3 Zrotation Xrotation Yrotation
    JOINT rThigh
    {
      OFFSET 0.0 -1.70687 -2.19456
      CHANNELS 3 Zrotation Xrotation Yrotation
      JOINT rShin
      {
        OFFSET 0.0 -36.8199 0.73152
        CHANNELS 3 Zrotation Xrotation Yrotation
        JOINT rFoot
        {
          OFFSET 0.73152 -45.1104 -5.12064
          CHANNELS 3 Zrotation Xrotation Yrotation
          End Site
          {
            OFFSET -1.1221 -3.69964 12.103
          }
        }
      }
    }
  }
  JOINT lButtock
  {
    OFFSET 8.77824 4.35084 1.2192
    CHANNELS 3 Zrotation Xrotation Yrotation
    JOINT lThigh
    {
      OFFSET 0.0 -1.70687 -2.19456
      CHANNELS 3 Zrotation Xrotation Yrotation
      JOINT lShin
      {
        OFFSET 0.0 -36.8199 0.73152
        CHANNELS 3 Zrotation Xrotation Yrotation
        JOINT lFoot
        {
          OFFSET -0.73152 -45.1104 -5.12064
          CHANNELS 3 Zrotation Xrotation Yrotation
          End Site
          {
            OFFSET 1.1221 -3.69964 12.103
          }
        }
      }
    }
  }
}
MOTION
Frames: 8
Frame Time: 0.00833333
167.6184 78.1279 0.060699999999998866 -268.064 87.2717 -263.539 -2.81267 2.16492 0.0955559 11.1095 -24.2145 2.74516 -1.37054 3.40853 -1.22176 -6.43369 28.3466 3.1867 -0.0 0.0 0.0 -0.0 0.0 0.0 5.11556e-14 -3.54793e-13 7.46087e-14 84.2024 50.7362 -34.0241 -24.3093 -19.6922 50.6115 -0.126145 -10.144 -1.44089 -1.12988e-09 4.39631e-10 -2.91817e-09 -1.91686e-09 7.60655e-10 -5.05137e-09 -1.12987e-09 4.39634e-10 -2.91818e-09 7.73091 5.47488 0.417314 -1.12988e-09 4.39631e-10 -2.91817e-09 2.90554 0.965183 0.102902 -1.12987e-09 4.39629e-10 -2.91818e-09 10.2786 0.731801 0.0259123 -1.12989e-09 4.39628e-10 -2.91817e-09 2.22167 -0.733487 -0.20892 5.11472e-14 -3.54774e-13 7.44293e-14 -100.628 32.9978 46.9815 28.2018 -32.0665 -70.6217 0.000443467 -0.281974 0.0396769 -2.9631e-10 1.14043e-09 2.51723e-09 -5.19975e-10 1.97393e-09 4.35341e-09 -2.96314e-10 1.14044e-09 2.51724e-09 -7.73091 5.47488 -0.417314 -2.96313e-10 1.14043e-09 2.51723e-09 -2.90554 0.965183 -0.102902 -2.96316e-10 1.14044e-09 2.51723e-09 -10.2786 0.731801 -0.0259123 -2.96306e-10 1.14044e-09 2.51722e-09 -2.22167 -0.733487 0.20892 -2.03217e-16 0.0 -3.88251e-19 1.82169 -8.82728 -9.77609 -0.747471 57.092 1.95309 -3.7175 -0.186378 -28.583 2.03217e-16 0.0 3.88251e-19 -14.8377 -18.4055 -14.84 0.0701591 28.7557 -0.706812 -2.37503 -10.9158 -13.5542
169.5136 77.4515 0.2142999999999997 -267.123 87.6853 -261.703 -4.65761 2.82317 -0.667025 10.5222 -24.2164 2.28227 -0.499032 2.41348 -0.901393 -6.47144 28.8068 3.53885 -0.0 0.0 0.0 -0.0 0.0 0.0 2.57708e-15 1.67409e-13 5.35166e-14 85.2149 48.3327 -34.4901 -23.8098 -18.7591 48.9727 -0.0815656 -8.22807 -1.16449 2.41803e-10 4.07246e-10 -1.64671e-09 4.39328e-10 7.04565e-10 -2.85035e-09 2.41817e-10 4.0725e-10 -1.64672e-09 7.73091 5.47488 0.417314 2.41807e-10 4.07246e-10 -1.64671e-09 2.90554 0.965183 0.102902 2.41814e-10 4.07244e-10 -1.64671e-09 10.2786 0.731801 0.0259123 2.41798e-10 4.07245e-10 -1.6467e-09 2.22167 -0.733487 -0.20892 2.59138e-15 1.67425e-13 5.32867e-14 -98.5812 34.2989 43.7652 28.1669 -31.8165 -70.2443 0.00137573 0.605244 -0.0850008 4.48422e-10 6.29451e-10 1.8517e-10 7.70279e-10 1.08983e-09 3.2209e-10 4.48418e-10 6.2945e-10 1.85178e-10 -7.73091 5.47488 -0.417314 4.48419e-10 6.29447e-10 1.85168e-10 -2.90554 0.965183 -0.102902 4.48415e-10 6.29448e-10 1.85169e-10 -10.2786 0.731801 -0.0259123 4.48427e-10 6.2945e-10 1.85166e-10 -2.22167 -0.733487 0.20892 -2.03217e-16 0.0 -3.88251e-19 -0.453483 -15.2241 -10.213 -1.00953 61.933 2.27136 -3.62752 -1.33934 -24.9308 2.03217e-16 0.0 3.88251e-19 -15.7841 -18.5217 -12.9616 0.0842111 30.6857 -0.615397 -2.20411 -9.43164 -14.2372
171.6386 76.9756 0.49659999999999904 -278.904 88.329 -273.176 -6.05771 3.27716 -1.40555 9.81216 -24.1509 1.80437 0.388003 1.42311 -0.565813 -6.6168 29.1895 3.94245 -0.0 0.0 0.0 -0.0 0.0 0.0 -5.02741e-14 6.72794e-13 3.29493e-14 86.303 46.0329 -35.2321 -23.3246 -17.8984 47.4783 -0.0564443 -6.73942 -0.951857 1.57295e-09 3.39176e-10 -2.81424e-10 2.72429e-09 5.86853e-10 -4.87008e-10 1.57296e-09 3.3918e-10 -2.81437e-10 7.73091 5.47488 0.417314 1.57295e-09 3.39174e-10 -2.81419e-10 2.90554 0.965183 0.102902 1.57296e-09 3.39173e-10 -2.81421e-10 10.2786 0.731801 0.0259123 1.57294e-09 3.39175e-10 -2.81413e-10 2.22167 -0.733487 -0.20892 -5.02398e-14 6.72807e-13 3.26721e-14 -96.4751 35.6712 40.3569 28.161 -31.7483 -70.1144 0.00330436 1.23484 -0.173535 1.13319e-09 6.5635e-11 -2.02174e-09 1.95656e-09 1.14215e-10 -3.49286e-09 1.13318e-09 6.56302e-11 -2.02173e-09 -7.73091 5.47488 -0.417314 1.13318e-09 6.56302e-11 -2.02174e-09 -2.90554 0.965183 -0.102902 1.13318e-09 6.56297e-11 -2.02174e-09 -10.2786 0.731801 -0.0259123 1.13319e-09 6.56323e-11 -2.02174e-09 -2.22167 -0.733487 0.20892 -2.03217e-16 0.0 -3.88251e-19 -2.31553 -21.9417 -10.4821 -1.29556 65.837 2.60514 -3.0624 -1.9937 -21.0391 2.03217e-16 0.0 3.88251e-19 -16.28 -18.5576 -11.1499 0.0912969 31.9123 -0.54313 -2.06267 -8.43792 -14.3473
174.131 76.7761 0.7678999999999991 -300.256 88.4569 -294.593 -6.85948 3.5289 -2.02791 9.19519 -24.1144 1.42275 1.08343 0.93209 -0.272536 -6.87563 29.3366 4.37154 -0.0 0.0 0.0 -0.0 0.0 0.0 -8.51038e-14 9.7573e-13 2.32081e-14 87.5692 44.3955 -36.5617 -22.8915 -17.1573 46.2725 -0.0485529 -6.27597 -0.88561 2.19149e-09 2.43535e-10 6.35996e-10 3.78274e-09 4.21598e-10 1.10033e-09 2.19151e-09 2.4354e-10 6.35981e-10 7.73091 5.47488 0.417314 2.1915e-09 2.43532e-10 6.36003e-10 2.90554 0.965183 0.102902 2.1915e-09 2.43532e-10 6.36002e-10 10.2786 0.731801 0.0259123 2.19148e-09 2.43535e-10 6.36009e-10 2.22167 -0.733487 -0.20892 -8.50615e-14 9.75739e-13 2.29099e-14 -94.8163 37.1171 37.1594 28.1922 -31.917 -70.3199 0.00207576 1.30081 -0.182849 1.41612e-09 -3.79272e-10 -2.96782e-09 2.4462e-09 -6.55948e-10 -5.12829e-09 1.41611e-09 -3.79278e-10 -2.96782e-09 -7.73091 5.47488 -0.417314 1.41612e-09 -3.79276e-10 -2.96782e-09 -2.90554 0.965183 -0.102902 1.41611e-09 -3.79278e-10 -2.96782e-09 -10.2786 0.731801 -0.0259123 1.41612e-09 -3.79275e-10 -2.96782e-09 -2.22167 -0.733487 0.20892 -2.03217e-16 0.0 -3.88251e-19 -3.62993 -27.4923 -10.3881 -1.46106 67.5113 2.81435 -2.72634 -2.99327 -18.3265 2.03217e-16 0.0 3.88251e-19 -16.6972 -17.6124 -10.0981 0.0835751 32.1931 -0.503416 -2.0973 -8.20724 -14.2782
176.8592 76.8209 0.8914999999999988 -310.882 87.9445 -305.351 -6.82964 3.55518 -2.46865 8.66001 -24.1666 1.17496 1.48619 1.19675 -0.0357922 -7.29545 29.0634 4.82889 -0.0 0.0 0.0 -0.0 0.0 0.0 -9.62154e-14 1.00845e-12 3.01027e-14 89.1885 43.6693 -38.7394 -22.5921 -16.657 45.5064 -0.0587794 -7.5267 -1.0621 1.72392e-09 1.12373e-10 9.02315e-10 2.97137e-09 1.95269e-10 1.55927e-09 1.72394e-09 1.12378e-10 9.02298e-10 7.73091 5.47488 0.417314 1.72392e-09 1.1237e-10 9.02322e-10 2.90554 0.965183 0.102902 1.72393e-09 1.12371e-10 9.02322e-10 10.2786 0.731801 0.0259123 1.72391e-09 1.12374e-10 9.02328e-10 2.22167 -0.733487 -0.20892 -9.61897e-14 1.00845e-12 2.98231e-14 -93.7465 38.7455 34.1813 28.259 -32.3953 -71.0185 -0.00507042 0.342916 -0.0482628 1.09479e-09 -6.25017e-10 -1.95107e-09 1.88763e-09 -1.08222e-09 -3.37067e-09 1.09479e-09 -6.25021e-10 -1.95106e-09 -7.73091 5.47488 -0.417314 1.09479e-09 -6.25019e-10 -1.95107e-09 -2.90554 0.965183 -0.102902 1.09479e-09 -6.25021e-10 -1.95107e-09 -10.2786 0.731801 -0.0259123 1.0948e-09 -6.25018e-10 -1.95108e-09 -2.22167 -0.733487 0.20892 -2.03217e-16 0.0 -3.88251e-19 -4.07052 -31.7548 -9.80053 -1.42405 66.6385 2.83493 -2.65193 -4.08266 -17.162 2.03217e-16 0.0 3.88251e-19 -17.043 -15.2509 -10.1486 0.0586265 31.2665 -0.534718 -2.47519 -9.21024 -14.3289
179.6543 77.1766 0.9760999999999989 -314.001 87.476 -308.459 -6.12627 3.36338 -2.78986 8.11426 -24.2454 0.998939 1.71194 1.9119 0.175147 -7.84545 28.5019 5.31934 -0.0 0.0 0.0 -0.0 0.0 0.0 -9.54163e-14 8.76043e-13 4.71182e-14 91.1059 43.4372 -41.5246 -22.421 -16.3823 45.0443 -0.104157 -9.99576 -1.41576 5.93422e-10 -5.52663e-11 8.26026e-10 1.01806e-09 -9.38822e-11 1.42429e-09 5.93438e-10 -5.52611e-11 8.26007e-10 7.73091 5.47488 0.417314 5.93425e-10 -5.52697e-11 8.26032e-10 2.90554 0.965183 0.102902 5.93431e-10 -5.52676e-11 8.26034e-10 10.2786 0.731801 0.0259123 5.93417e-10 -5.52656e-11 8.26039e-10 2.22167 -0.733487 -0.20892 -9.54233e-14 8.76045e-13 4.68821e-14 -92.9343 40.5556 31.2228 28.3326 -33.1085 -72.1529 -0.0057038 -1.34943 0.189508 3.88627e-10 -7.74681e-10 2.89765e-10 6.61435e-10 -1.34273e-09 5.02959e-10 3.88623e-10 -7.74682e-10 2.89775e-10 -7.73091 5.47488 -0.417314 3.88626e-10 -7.7468e-10 2.89767e-10 -2.90554 0.965183 -0.102902 3.88625e-10 -7.74681e-10 2.89764e-10 -10.2786 0.731801 -0.0259123 3.88634e-10 -7.74678e-10 2.89758e-10 -2.22167 -0.733487 0.20892 -2.03217e-16 0.0 -3.88251e-19 -3.61907 -35.4439 -8.71288 -1.22976 63.8997 2.70716 -2.6199 -4.93247 -16.7892 2.03217e-16 0.0 3.88251e-19 -17.0678 -12.0405 -10.8826 0.0188343 29.3275 -0.617465 -3.08463 -11.1675 -14.2358
182.58159999999998 77.7887 1.2251999999999992 -324.361 87.4022 -318.625 -5.18128 3.00155 -3.0907 7.65023 -24.2657 0.855824 1.87363 2.72996 0.37038 -8.41815 27.9687 5.82169 -0.0 0.0 0.0 -0.0 0.0 0.0 -8.66683e-14 6.52171e-13 6.60687e-14 93.0587 43.2744 -44.4464 -22.2781 -16.1676 44.607 -0.183361 -12.5042 -1.78369 -6.76962e-10 -2.40776e-10 6.33044e-10 -1.17562e-09 -4.14096e-10 1.08745e-09 -6.7695e-10 -2.40771e-10 6.33024e-10 7.73091 5.47488 0.417314 -6.76958e-10 -2.4078e-10 6.33048e-10 2.90554 0.965183 0.102902 -6.76952e-10 -2.40776e-10 6.33051e-10 10.2786 0.731801 0.0259123 -6.76963e-10 -2.40775e-10 6.33055e-10 2.22167 -0.733487 -0.20892 -8.67025e-14 6.52169e-13 6.58824e-14 -92.2264 42.4279 28.4199 28.3848 -33.8961 -73.4823 0.00693825 -2.95769 0.415928 -4.11486e-10 -9.3152e-10 2.72923e-09 -7.26762e-10 -1.61537e-09 4.71998e-09 -4.11489e-10 -9.31518e-10 2.72924e-09 -7.73091 5.47488 -0.417314 -4.11485e-10 -9.31516e-10 2.72923e-09 -2.90554 0.965183 -0.102902 -4.11484e-10 -9.31517e-10 2.72923e-09 -10.2786 0.731801 -0.0259123 -4.11477e-10 -9.31514e-10 2.72922e-09 -2.22167 -0.733487 0.20892 -2.03217e-16 0.0 -3.88251e-19 -2.55669 -38.312 -6.9907 -0.911639 59.4994 2.43185 -2.8337 -6.3353 -16.9636 2.03217e-16 0.0 3.88251e-19 -16.8231 -8.58741 -11.8726 -0.0319274 26.8183 -0.680937 -3.57739 -13.2425 -13.5257
185.4281 78.702 1.6128 -336.929 87.4174 -330.676 -4.42691 2.51768 -3.47042 7.36102 -24.1421 0.707078 2.08884 3.30334 0.55983 -8.91913 27.7798 6.31996 -0.0 0.0 0.0 -0.0 0.0 0.0 -7.39332e-14 4.10492e-13 7.87684e-14 94.6945 42.8419 -46.9871 -22.0491 -15.8312 43.9224 -0.242089 -13.8749 -1.98942 -1.5642e-09 -4.25549e-10 5.49282e-10 -2.7081e-09 -7.33614e-10 9.40785e-10 -1.56419e-09 -4.25544e-10 5.49263e-10 7.73091 5.47488 0.417314 -1.56419e-09 -4.25552e-10 5.49285e-10 2.90554 0.965183 0.102902 -1.56419e-09 -4.25548e-10 5.49289e-10 10.2786 0.731801 0.0259123 -1.56419e-09 -4.25548e-10 5.49291e-10 2.22167 -0.733487 -0.20892 -7.39675e-14 4.10488e-13 7.86193e-14 -91.5203 44.2461 25.9381 28.4144 -34.6288 -74.7324 0.0164884 -3.66345 0.515574 -1.01464e-09 -1.19879e-09 4.34187e-09 -1.77134e-09 -2.07806e-09 7.50777e-09 -1.01465e-09 -1.19879e-09 4.34188e-09 -7.73091 5.47488 -0.417314 -1.01464e-09 -1.19879e-09 4.34187e-09 -2.90554 0.965183 -0.102902 -1.01464e-09 -1.19879e-09 4.34187e-09 -10.2786 0.731801 -0.0259123 -1.01464e-09 -1.19878e-09 4.34185e-09 -2.22167 -0.733487 0.20892 -2.03217e-16 0.0 -3.88251e-19 -1.23306 -40.09 -4.53819 -0.543919 53.6409 2.04312 -3.49864 -9.083 -17.4705 2.03217e-16 0.0 3.88251e-19 -16.4821 -5.48107 -12.6974 -0.0751641 24.1814 -0.661034 -3.56758 -14.5956 -11.6884
